<svg width="334" height="65" viewBox="0 0 334 65" fill="none" xmlns="http://www.w3.org/2000/svg">
  <path
    d="M14.9333 0C6.68594 0 0 6.68594 0 14.9333C0 23.1807 6.68594 29.8667 14.9333 29.8667C23.1807 29.8667 29.8667 23.1807 29.8667 14.9333C29.8578 6.68958 23.1771 0.00885416 14.9333 0ZM14.9333 27.7333C7.86406 27.7333 2.13333 22.0026 2.13333 14.9333C2.13333 7.86406 7.86406 2.13333 14.9333 2.13333C22.0026 2.13333 27.7333 7.86406 27.7333 14.9333C27.7255 21.9995 21.9995 27.7255 14.9333 27.7333Z"
    fill="white" />
  <path
    d="M49.0667 29.8667C57.3141 29.8667 64 23.1807 64 14.9333C64 6.68594 57.3141 0 49.0667 0C40.8193 0 34.1333 6.68594 34.1333 14.9333C34.1422 23.1771 40.8229 29.8578 49.0667 29.8667ZM49.0667 2.13333C56.1359 2.13333 61.8667 7.86406 61.8667 14.9333C61.8667 22.0026 56.1359 27.7333 49.0667 27.7333C41.9974 27.7333 36.2667 22.0026 36.2667 14.9333C36.2745 7.86719 42.0005 2.14115 49.0667 2.13333Z"
    fill="white" />
  <path
    d="M14.9333 34.1333C6.68594 34.1333 0 40.8193 0 49.0667C0 57.3141 6.68594 64 14.9333 64C23.1807 64 29.8667 57.3141 29.8667 49.0667C29.8578 40.8229 23.1771 34.1422 14.9333 34.1333ZM14.9333 61.8667C7.86406 61.8667 2.13333 56.1359 2.13333 49.0667C2.13333 41.9974 7.86406 36.2667 14.9333 36.2667C22.0026 36.2667 27.7333 41.9974 27.7333 49.0667C27.7255 56.1328 21.9995 61.8589 14.9333 61.8667Z"
    fill="white" />
  <path
    d="M49.0667 34.1333C40.8193 34.1333 34.1333 40.8193 34.1333 49.0667C34.1333 57.3141 40.8193 64 49.0667 64C57.3141 64 64 57.3141 64 49.0667C63.9911 40.8229 57.3104 34.1422 49.0667 34.1333ZM49.0667 61.8667C41.9974 61.8667 36.2667 56.1359 36.2667 49.0667C36.2667 41.9974 41.9974 36.2667 49.0667 36.2667C56.1359 36.2667 61.8667 41.9974 61.8667 49.0667C61.8588 56.1328 56.1328 61.8589 49.0667 61.8667Z"
    fill="white" />
  <path
    d="M14.9333 5.33333C14.3443 5.33333 13.8667 5.81093 13.8667 6.39999V13.8667H8.53333C7.94427 13.8667 7.46667 14.3443 7.46667 14.9333C7.46667 15.5224 7.94427 16 8.53333 16H14.9333C15.5224 16 16 15.5224 16 14.9333V6.39999C16 5.81093 15.5224 5.33333 14.9333 5.33333Z"
    fill="white" />
  <path
    d="M52.5792 19.9542C52.9979 20.3583 53.663 20.3526 54.0745 19.9411C54.4859 19.5297 54.4917 18.8646 54.0875 18.4458L50.1333 14.4917V6.39999C50.1333 5.81093 49.6557 5.33333 49.0667 5.33333C48.4776 5.33333 48 5.81093 48 6.39999V14.9333C48 15.2161 48.1125 15.4875 48.3125 15.6875L52.5792 19.9542Z"
    fill="white" />
  <path
    d="M20.2135 42.2787L14.9333 47.5583L11.1625 43.7865C10.8948 43.5094 10.4984 43.3979 10.1255 43.4958C9.75261 43.5932 9.46094 43.8849 9.36354 44.2578C9.26615 44.6307 9.37708 45.0271 9.65417 45.2948L14.1792 49.8208C14.5958 50.237 15.2708 50.237 15.6875 49.8208L21.7214 43.7865C22.126 43.3682 22.1203 42.7026 21.7089 42.2912C21.2974 41.8797 20.6318 41.874 20.2135 42.2787Z"
    fill="white" />
  <path
    d="M49.0667 39.4667C48.4776 39.4667 48 39.9443 48 40.5333V49.6917L43.5125 54.1792C43.2354 54.4469 43.124 54.8438 43.2219 55.2167C43.3193 55.5896 43.6104 55.8807 43.9833 55.9781C44.3562 56.076 44.7531 55.9646 45.0208 55.6875L49.8208 50.8875C50.0208 50.6875 50.1333 50.4162 50.1333 50.1333V40.5333C50.1333 39.9443 49.6557 39.4667 49.0667 39.4667Z"
    fill="white" />
  <path
    d="M84 1.048H107.328C107.488 1.048 107.616 1.096 107.712 1.192C107.84 1.288 107.904 1.416 107.904 1.576C107.904 2.568 107.904 3.464 107.904 4.264C107.904 5.032 107.904 5.912 107.904 6.904H84.576C84.48 6.904 84.384 6.888 84.288 6.856C84.224 6.792 84.16 6.728 84.096 6.664C84.032 6.568 84 6.472 84 6.376C84 5.384 84 4.488 84 3.688C84 2.888 84 2.008 84 1.048ZM99.408 34.648C98.352 34.648 97.296 34.648 96.24 34.648C95.184 34.648 94.112 34.648 93.024 34.648C92.864 34.648 92.736 34.6 92.64 34.504C92.544 34.408 92.496 34.28 92.496 34.12C92.496 31.528 92.496 29.016 92.496 26.584C92.496 24.152 92.496 21.72 92.496 19.288C92.496 16.824 92.496 14.36 92.496 11.896C92.496 9.4 92.496 6.888 92.496 4.36H99.936L99.408 5.656C99.408 6.296 99.408 6.984 99.408 7.72C99.408 8.424 99.408 9.112 99.408 9.784C99.408 10.456 99.408 11.096 99.408 11.704C99.408 13.752 99.408 15.752 99.408 17.704C99.408 19.624 99.408 21.592 99.408 23.608C99.408 25.592 99.408 27.688 99.408 29.896C99.408 30.792 99.408 31.64 99.408 32.44C99.408 33.24 99.408 33.976 99.408 34.648Z"
    fill="white" />
  <path
    d="M124.852 31.048H117.748L117.94 29.08C117.94 28.536 117.94 27.928 117.94 27.256C117.94 26.584 117.94 25.976 117.94 25.432C117.94 23.704 117.94 21.976 117.94 20.248C117.94 18.52 117.94 16.808 117.94 15.112C117.94 13.384 117.94 11.656 117.94 9.928C117.94 8.168 117.94 6.408 117.94 4.648H125.044L124.852 6.616C124.852 7.128 124.852 7.704 124.852 8.344C124.852 8.984 124.852 9.576 124.852 10.12C124.852 11.88 124.852 13.64 124.852 15.4C124.852 17.128 124.852 18.872 124.852 20.632C124.852 22.36 124.852 24.088 124.852 25.816C124.852 27.544 124.852 29.288 124.852 31.048ZM129.988 34.648H113.332C113.268 34.648 113.204 34.632 113.14 34.6C113.076 34.568 113.012 34.536 112.948 34.504C112.916 34.44 112.884 34.376 112.852 34.312C112.82 34.248 112.804 34.184 112.804 34.12C112.804 33.48 112.804 32.872 112.804 32.296C112.804 31.72 112.804 31.16 112.804 30.616C112.804 30.04 112.804 29.432 112.804 28.792H129.412C129.508 28.792 129.604 28.824 129.7 28.888C129.796 28.92 129.86 28.984 129.892 29.08C129.956 29.144 129.988 29.224 129.988 29.32C129.988 29.96 129.988 30.568 129.988 31.144C129.988 31.688 129.988 32.248 129.988 32.824C129.988 33.4 129.988 34.008 129.988 34.648ZM112.804 1.048H129.412C129.604 1.048 129.748 1.096 129.844 1.192C129.94 1.288 129.988 1.416 129.988 1.576C129.988 2.024 129.988 2.472 129.988 2.92C129.988 3.368 129.988 3.816 129.988 4.264C129.988 4.68 129.988 5.112 129.988 5.56C129.988 5.976 129.988 6.424 129.988 6.904H113.332C113.204 6.904 113.076 6.856 112.948 6.76C112.852 6.632 112.804 6.504 112.804 6.376C112.804 5.896 112.804 5.448 112.804 5.032C112.804 4.584 112.804 4.152 112.804 3.736C112.804 3.288 112.804 2.84 112.804 2.392C112.804 1.944 112.804 1.496 112.804 1.048Z"
    fill="white" />
  <path
    d="M143.38 34.648C142.42 34.648 141.428 34.648 140.404 34.648C139.412 34.648 138.42 34.648 137.428 34.648C137.332 34.648 137.236 34.632 137.14 34.6C137.076 34.536 137.012 34.472 136.948 34.408C136.916 34.312 136.9 34.216 136.9 34.12C136.9 31.752 136.9 29.4 136.9 27.064C136.9 24.696 136.9 22.344 136.9 20.008C136.9 17.64 136.9 15.272 136.9 12.904C136.9 10.536 136.9 8.184 136.9 5.848C136.9 5.048 136.9 4.248 136.9 3.448C136.9 2.648 136.9 1.848 136.9 1.048C137.572 1.048 138.42 1.048 139.444 1.048C140.468 1.048 141.476 1.048 142.468 1.048C143.46 1.048 144.244 1.048 144.82 1.048C145.012 1.048 145.172 1.08 145.3 1.144C145.428 1.208 145.54 1.32 145.636 1.48C145.764 1.608 145.876 1.832 145.972 2.152C146.484 3.368 146.98 4.568 147.46 5.752C147.94 6.936 148.404 8.12 148.852 9.304C149.332 10.488 149.796 11.688 150.244 12.904C150.692 14.088 151.14 15.304 151.588 16.552C152.068 17.8 152.548 19.112 153.028 20.488L150.916 18.28H154.372L152.212 20.488C152.692 19.112 153.156 17.784 153.604 16.504C154.084 15.224 154.548 13.976 154.996 12.76C155.476 11.512 155.94 10.264 156.388 9.016C156.868 7.736 157.348 6.44 157.828 5.128C158.34 3.816 158.884 2.456 159.46 1.048C160.1 1.048 160.948 1.048 162.004 1.048C163.06 1.048 164.116 1.048 165.172 1.048C166.228 1.048 167.092 1.048 167.764 1.048C167.86 1.048 167.94 1.08 168.004 1.144C168.1 1.176 168.164 1.24 168.196 1.336C168.26 1.4 168.292 1.48 168.292 1.576C168.292 2.952 168.292 4.376 168.292 5.848C168.292 7.32 168.292 8.856 168.292 10.456C168.292 12.024 168.292 13.624 168.292 15.256C168.292 16.888 168.292 18.52 168.292 20.152C168.292 21.784 168.292 23.432 168.292 25.096C168.292 26.728 168.292 28.328 168.292 29.896C168.292 30.408 168.292 30.936 168.292 31.48C168.292 31.992 168.292 32.52 168.292 33.064C168.292 33.576 168.292 34.104 168.292 34.648C167.3 34.648 166.292 34.648 165.268 34.648C164.276 34.648 163.3 34.648 162.34 34.648C162.244 34.648 162.148 34.632 162.052 34.6C161.988 34.536 161.924 34.472 161.86 34.408C161.828 34.312 161.812 34.216 161.812 34.12C161.812 33.416 161.812 32.744 161.812 32.104C161.812 31.432 161.812 30.76 161.812 30.088C161.812 29.384 161.812 28.712 161.812 28.072C161.812 27.144 161.812 26.232 161.812 25.336C161.844 24.44 161.86 23.544 161.86 22.648C161.892 21.752 161.94 20.824 162.004 19.864C162.068 18.904 162.148 17.896 162.244 16.84C162.34 15.784 162.452 14.664 162.58 13.48C162.708 12.264 162.852 10.984 163.012 9.64L163.924 11.08H160.516L162.484 9.688C162.004 10.872 161.508 12.104 160.996 13.384C160.516 14.632 160.02 15.896 159.508 17.176C158.996 18.424 158.484 19.688 157.972 20.968C157.492 22.216 156.996 23.464 156.484 24.712C156.004 25.928 155.54 27.112 155.092 28.264C154.324 28.264 153.54 28.264 152.74 28.264C151.972 28.264 151.204 28.264 150.436 28.264C150.34 28.264 150.228 28.248 150.1 28.216C150.004 28.152 149.924 28.04 149.86 27.88C149.444 26.856 148.996 25.768 148.516 24.616C148.068 23.432 147.604 22.216 147.124 20.968C146.644 19.72 146.148 18.456 145.636 17.176C145.124 15.896 144.612 14.632 144.1 13.384C143.62 12.136 143.14 10.904 142.66 9.688L144.58 11.08H141.22L142.084 9.64C142.276 10.952 142.436 12.2 142.564 13.384C142.724 14.568 142.836 15.688 142.9 16.744C142.996 17.768 143.076 18.776 143.14 19.768C143.204 20.728 143.252 21.672 143.284 22.6C143.316 23.496 143.332 24.392 143.332 25.288C143.364 26.184 143.38 27.112 143.38 28.072C143.38 29.16 143.38 30.264 143.38 31.384C143.38 32.472 143.38 33.56 143.38 34.648Z"
    fill="white" />
  <path
    d="M173.178 1.048H195.21C195.306 1.048 195.386 1.08 195.45 1.144C195.514 1.176 195.578 1.24 195.642 1.336C195.706 1.4 195.738 1.48 195.738 1.576C195.738 2.568 195.738 3.464 195.738 4.264C195.738 5.032 195.738 5.912 195.738 6.904H173.706C173.61 6.904 173.514 6.888 173.418 6.856C173.354 6.792 173.29 6.728 173.226 6.664C173.194 6.568 173.178 6.472 173.178 6.376C173.178 5.384 173.178 4.488 173.178 3.688C173.178 2.888 173.178 2.008 173.178 1.048ZM179.754 14.92H192.378C192.474 14.92 192.554 14.952 192.618 15.016C192.714 15.08 192.778 15.144 192.81 15.208C192.874 15.272 192.906 15.352 192.906 15.448C192.906 16.12 192.906 16.744 192.906 17.32C192.906 17.864 192.906 18.408 192.906 18.952C192.906 19.464 192.906 20.008 192.906 20.584H179.754V14.92ZM176.058 34.648C175.962 34.648 175.882 34.632 175.818 34.6C175.754 34.568 175.69 34.536 175.626 34.504C175.594 34.44 175.562 34.376 175.53 34.312C175.498 34.248 175.482 34.184 175.482 34.12C175.482 33.256 175.482 32.008 175.482 30.376C175.482 28.712 175.482 26.824 175.482 24.712C175.482 22.568 175.482 20.328 175.482 17.992C175.482 15.624 175.482 13.288 175.482 10.984C175.482 8.648 175.482 6.504 175.482 4.552H182.778L182.394 5.608C182.394 6.344 182.394 7.096 182.394 7.864C182.394 8.632 182.394 9.4 182.394 10.168C182.394 11.64 182.394 13.16 182.394 14.728C182.394 16.296 182.394 17.864 182.394 19.432C182.394 21 182.394 22.584 182.394 24.184C182.394 25.752 182.394 27.288 182.394 28.792H195.21C195.37 28.792 195.498 28.84 195.594 28.936C195.69 29.032 195.738 29.16 195.738 29.32C195.738 30.248 195.738 31.144 195.738 32.008C195.738 32.84 195.738 33.72 195.738 34.648H176.058Z"
    fill="white" />
  <path
    d="M210.801 17.416C209.873 17.416 208.977 17.416 208.113 17.416C207.281 17.416 206.433 17.416 205.569 17.416C204.737 17.416 203.841 17.416 202.881 17.416C202.785 17.416 202.689 17.4 202.593 17.368C202.529 17.304 202.465 17.24 202.401 17.176C202.369 17.08 202.353 16.984 202.353 16.888V8.92C203.313 8.92 204.209 8.92 205.041 8.92C205.905 8.92 206.753 8.92 207.585 8.92C208.449 8.92 209.345 8.92 210.273 8.92C210.401 8.92 210.497 8.952 210.561 9.016C210.625 9.048 210.673 9.096 210.705 9.16C210.769 9.224 210.801 9.32 210.801 9.448V17.416ZM210.801 35.08C209.873 35.08 208.977 35.08 208.113 35.08C207.281 35.08 206.433 35.08 205.569 35.08C204.737 35.08 203.841 35.08 202.881 35.08C202.785 35.08 202.689 35.048 202.593 34.984C202.529 34.952 202.465 34.888 202.401 34.792C202.369 34.728 202.353 34.648 202.353 34.552V26.584C203.313 26.584 204.209 26.584 205.041 26.584C205.905 26.584 206.753 26.584 207.585 26.584C208.449 26.584 209.345 26.584 210.273 26.584C210.401 26.584 210.497 26.616 210.561 26.68C210.625 26.712 210.673 26.76 210.705 26.824C210.769 26.888 210.801 26.984 210.801 27.112V35.08Z"
    fill="white" />
  <path
    d="M216.35 1.048H238.382C238.478 1.048 238.558 1.08 238.622 1.144C238.686 1.176 238.75 1.24 238.814 1.336C238.878 1.4 238.91 1.48 238.91 1.576C238.91 2.568 238.91 3.464 238.91 4.264C238.91 5.032 238.91 5.912 238.91 6.904H216.878C216.782 6.904 216.686 6.888 216.59 6.856C216.526 6.792 216.462 6.728 216.398 6.664C216.366 6.568 216.35 6.472 216.35 6.376C216.35 5.384 216.35 4.488 216.35 3.688C216.35 2.888 216.35 2.008 216.35 1.048ZM222.926 14.92H235.55C235.646 14.92 235.726 14.952 235.79 15.016C235.886 15.08 235.95 15.144 235.982 15.208C236.046 15.272 236.078 15.352 236.078 15.448C236.078 16.12 236.078 16.744 236.078 17.32C236.078 17.864 236.078 18.408 236.078 18.952C236.078 19.464 236.078 20.008 236.078 20.584H222.926V14.92ZM219.23 34.648C219.134 34.648 219.054 34.632 218.99 34.6C218.926 34.568 218.862 34.536 218.798 34.504C218.766 34.44 218.734 34.376 218.702 34.312C218.67 34.248 218.654 34.184 218.654 34.12C218.654 33.256 218.654 32.008 218.654 30.376C218.654 28.712 218.654 26.824 218.654 24.712C218.654 22.568 218.654 20.328 218.654 17.992C218.654 15.624 218.654 13.288 218.654 10.984C218.654 8.648 218.654 6.504 218.654 4.552H225.95L225.566 5.608C225.566 6.344 225.566 7.096 225.566 7.864C225.566 8.632 225.566 9.4 225.566 10.168C225.566 11.64 225.566 13.16 225.566 14.728C225.566 16.296 225.566 17.864 225.566 19.432C225.566 21 225.566 22.584 225.566 24.184C225.566 25.752 225.566 27.288 225.566 28.792H238.382C238.542 28.792 238.67 28.84 238.766 28.936C238.862 29.032 238.91 29.16 238.91 29.32C238.91 30.248 238.91 31.144 238.91 32.008C238.91 32.84 238.91 33.72 238.91 34.648H219.23Z"
    fill="white" />
  <path
    d="M250.469 34.648C249.477 34.648 248.485 34.648 247.493 34.648C246.501 34.648 245.493 34.648 244.469 34.648C244.373 34.648 244.277 34.632 244.181 34.6C244.117 34.536 244.053 34.472 243.989 34.408C243.957 34.312 243.941 34.216 243.941 34.12C243.941 31.784 243.941 29.448 243.941 27.112C243.941 24.776 243.941 22.456 243.941 20.152C243.941 17.816 243.941 15.48 243.941 13.144C243.941 10.776 243.941 8.44 243.941 6.136C243.941 5.272 243.941 4.424 243.941 3.592C243.941 2.728 243.941 1.88 243.941 1.048C244.645 1.048 245.429 1.048 246.293 1.048C247.157 1.048 248.021 1.048 248.885 1.048C249.781 1.048 250.549 1.048 251.189 1.048C251.381 1.048 251.525 1.08 251.621 1.144C251.717 1.176 251.829 1.288 251.957 1.48C252.085 1.672 252.277 2.024 252.533 2.536C253.269 3.912 253.989 5.256 254.693 6.568C255.397 7.848 256.085 9.128 256.757 10.408C257.461 11.688 258.133 12.968 258.773 14.248C259.445 15.496 260.101 16.744 260.741 17.992C261.413 19.24 262.069 20.504 262.709 21.784C263.381 23.032 264.021 24.312 264.629 25.624L262.757 24.328H266.021L265.013 24.904C264.757 23.464 264.533 22.12 264.341 20.872C264.181 19.624 264.037 18.44 263.909 17.32C263.781 16.168 263.685 15.064 263.621 14.008C263.557 12.92 263.509 11.864 263.477 10.84C263.445 9.784 263.429 8.712 263.429 7.624C263.429 6.696 263.429 5.672 263.429 4.552C263.429 3.4 263.429 2.232 263.429 1.048C264.453 1.048 265.461 1.048 266.453 1.048C267.445 1.048 268.437 1.048 269.429 1.048C269.589 1.048 269.717 1.096 269.813 1.192C269.909 1.288 269.957 1.416 269.957 1.576C269.957 3.88 269.957 6.2 269.957 8.536C269.957 10.84 269.957 13.16 269.957 15.496C269.957 17.8 269.957 20.104 269.957 22.408C269.957 24.712 269.957 27.032 269.957 29.368C269.957 30.264 269.957 31.16 269.957 32.056C269.957 32.92 269.957 33.784 269.957 34.648C269.317 34.648 268.645 34.648 267.941 34.648C267.237 34.648 266.549 34.648 265.877 34.648C265.205 34.648 264.597 34.648 264.053 34.648C263.861 34.648 263.637 34.584 263.381 34.456C263.125 34.296 262.789 33.848 262.373 33.112C260.965 30.712 259.669 28.472 258.485 26.392C257.301 24.28 256.197 22.264 255.173 20.344C254.149 18.424 253.157 16.536 252.197 14.68C251.269 12.792 250.325 10.856 249.365 8.872L251.525 10.504H248.213L249.077 9.784C249.333 11.288 249.525 12.712 249.653 14.056C249.813 15.4 249.941 16.68 250.037 17.896C250.165 19.08 250.261 20.216 250.325 21.304C250.389 22.36 250.421 23.352 250.421 24.28C250.453 25.208 250.469 26.056 250.469 26.824C250.469 28.072 250.469 29.368 250.469 30.712C250.469 32.024 250.469 33.336 250.469 34.648Z"
    fill="white" />
  <path
    d="M281.688 34.648C280.696 34.648 279.704 34.648 278.712 34.648C277.72 34.648 276.712 34.648 275.688 34.648C275.592 34.648 275.496 34.632 275.4 34.6C275.336 34.536 275.272 34.472 275.208 34.408C275.176 34.312 275.16 34.216 275.16 34.12C275.16 31.784 275.16 29.448 275.16 27.112C275.16 24.776 275.16 22.456 275.16 20.152C275.16 17.816 275.16 15.48 275.16 13.144C275.16 10.776 275.16 8.44 275.16 6.136C275.16 5.272 275.16 4.424 275.16 3.592C275.16 2.728 275.16 1.88 275.16 1.048C275.864 1.048 276.648 1.048 277.512 1.048C278.376 1.048 279.24 1.048 280.104 1.048C281 1.048 281.768 1.048 282.408 1.048C282.6 1.048 282.744 1.08 282.84 1.144C282.936 1.176 283.048 1.288 283.176 1.48C283.304 1.672 283.496 2.024 283.752 2.536C284.488 3.912 285.208 5.256 285.912 6.568C286.616 7.848 287.304 9.128 287.976 10.408C288.68 11.688 289.352 12.968 289.992 14.248C290.664 15.496 291.32 16.744 291.96 17.992C292.632 19.24 293.288 20.504 293.928 21.784C294.6 23.032 295.24 24.312 295.848 25.624L293.976 24.328H297.24L296.232 24.904C295.976 23.464 295.752 22.12 295.56 20.872C295.4 19.624 295.256 18.44 295.128 17.32C295 16.168 294.904 15.064 294.84 14.008C294.776 12.92 294.728 11.864 294.696 10.84C294.664 9.784 294.648 8.712 294.648 7.624C294.648 6.696 294.648 5.672 294.648 4.552C294.648 3.4 294.648 2.232 294.648 1.048C295.672 1.048 296.68 1.048 297.672 1.048C298.664 1.048 299.656 1.048 300.648 1.048C300.808 1.048 300.936 1.096 301.032 1.192C301.128 1.288 301.176 1.416 301.176 1.576C301.176 3.88 301.176 6.2 301.176 8.536C301.176 10.84 301.176 13.16 301.176 15.496C301.176 17.8 301.176 20.104 301.176 22.408C301.176 24.712 301.176 27.032 301.176 29.368C301.176 30.264 301.176 31.16 301.176 32.056C301.176 32.92 301.176 33.784 301.176 34.648C300.536 34.648 299.864 34.648 299.16 34.648C298.456 34.648 297.768 34.648 297.096 34.648C296.424 34.648 295.816 34.648 295.272 34.648C295.08 34.648 294.856 34.584 294.6 34.456C294.344 34.296 294.008 33.848 293.592 33.112C292.184 30.712 290.888 28.472 289.704 26.392C288.52 24.28 287.416 22.264 286.392 20.344C285.368 18.424 284.376 16.536 283.416 14.68C282.488 12.792 281.544 10.856 280.584 8.872L282.744 10.504H279.432L280.296 9.784C280.552 11.288 280.744 12.712 280.872 14.056C281.032 15.4 281.16 16.68 281.256 17.896C281.384 19.08 281.48 20.216 281.544 21.304C281.608 22.36 281.64 23.352 281.64 24.28C281.672 25.208 281.688 26.056 281.688 26.824C281.688 28.072 281.688 29.368 281.688 30.712C281.688 32.024 281.688 33.336 281.688 34.648Z"
    fill="white" />
  <path
    d="M310.938 21.208H321.258C321.77 21.208 322.266 21.208 322.746 21.208C323.226 21.208 323.706 21.208 324.186 21.208L325.866 20.776L327.21 26.872H311.37C311.274 26.872 311.178 26.856 311.082 26.824C311.018 26.76 310.954 26.696 310.89 26.632C310.858 26.536 310.842 26.44 310.842 26.344L310.938 21.208ZM311.946 34.648C310.954 34.648 309.946 34.648 308.922 34.648C307.898 34.648 306.89 34.648 305.898 34.648C305.834 34.648 305.77 34.632 305.706 34.6C305.642 34.568 305.578 34.504 305.514 34.408C305.482 34.312 305.482 34.184 305.514 34.024C305.738 33.224 306.01 32.152 306.33 30.808C306.682 29.432 307.066 27.896 307.482 26.2C307.898 24.472 308.346 22.664 308.826 20.776C309.306 18.856 309.786 16.936 310.266 15.016C310.746 13.096 311.194 11.24 311.61 9.448C312.058 7.656 312.458 6.04 312.81 4.6C313.194 3.16 313.514 1.96 313.77 1C315.594 1 317.466 1 319.386 1C321.338 1 323.082 1 324.618 1C324.746 1 324.842 1.032 324.906 1.096C324.97 1.128 325.018 1.176 325.05 1.24C325.114 1.304 325.162 1.4 325.194 1.528C325.642 3.32 326.122 5.224 326.634 7.24C327.146 9.256 327.674 11.384 328.218 13.624C328.794 15.832 329.37 18.136 329.946 20.536C330.554 22.936 331.162 25.416 331.77 27.976C332.026 29.032 332.282 30.12 332.538 31.24C332.826 32.36 333.066 33.496 333.258 34.648C332.362 34.648 331.386 34.648 330.33 34.648C329.274 34.648 328.282 34.648 327.354 34.648C327.162 34.648 327.002 34.632 326.874 34.6C326.778 34.536 326.698 34.44 326.634 34.312C326.602 34.184 326.538 33.992 326.442 33.736C325.738 30.824 325.082 28.152 324.474 25.72C323.866 23.256 323.306 21 322.794 18.952C322.282 16.904 321.834 15.048 321.45 13.384C321.098 11.688 320.778 10.152 320.49 8.776C320.202 7.4 319.978 6.168 319.818 5.08L321.69 6.232H317.226L319.098 5.08C318.906 6.168 318.666 7.4 318.378 8.776C318.09 10.12 317.738 11.64 317.322 13.336C316.938 15.032 316.474 16.936 315.93 19.048C315.386 21.128 314.794 23.464 314.154 26.056C313.514 28.616 312.778 31.48 311.946 34.648Z"
    fill="white" />
  <path
    d="M84 49.92H93.72C93.7867 49.92 93.84 49.94 93.88 49.98C93.9333 50.02 93.96 50.0733 93.96 50.14C93.96 50.5533 93.96 50.9267 93.96 51.26C93.96 51.58 93.96 51.9467 93.96 52.36H84.24C84.2 52.36 84.16 52.3533 84.12 52.34C84.0933 52.3133 84.0667 52.2867 84.04 52.26C84.0133 52.22 84 52.18 84 52.14C84 51.7267 84 51.3533 84 51.02C84 50.6867 84 50.32 84 49.92ZM90.42 63.92C89.98 63.92 89.54 63.92 89.1 63.92C88.66 63.92 88.2133 63.92 87.76 63.92C87.6933 63.92 87.64 63.9 87.6 63.86C87.56 63.82 87.54 63.7667 87.54 63.7C87.54 62.62 87.54 61.5733 87.54 60.56C87.54 59.5467 87.54 58.5333 87.54 57.52C87.54 56.4933 87.54 55.4667 87.54 54.44C87.54 53.4 87.54 52.3533 87.54 51.3H90.64L90.42 51.84C90.42 52.1067 90.42 52.3933 90.42 52.7C90.42 52.9933 90.42 53.28 90.42 53.56C90.42 53.84 90.42 54.1067 90.42 54.36C90.42 55.2133 90.42 56.0467 90.42 56.86C90.42 57.66 90.42 58.48 90.42 59.32C90.42 60.1467 90.42 61.02 90.42 61.94C90.42 62.3133 90.42 62.6667 90.42 63C90.42 63.3333 90.42 63.64 90.42 63.92Z"
    fill="white" />
  <path
    d="M97.3522 63.7C97.3522 63.34 97.3522 62.8933 97.3522 62.36C97.3522 61.8133 97.3522 61.2267 97.3522 60.6C97.3522 59.9733 97.3522 59.3467 97.3522 58.72C97.3522 58.0933 97.3522 57.5067 97.3522 56.96C97.3522 56.4133 97.3522 55.9533 97.3522 55.58H97.2122C97.1322 55.58 97.0389 55.58 96.9322 55.58C96.8255 55.58 96.7055 55.58 96.5722 55.58C96.4522 55.58 96.3255 55.58 96.1922 55.58C96.0722 55.58 95.9589 55.58 95.8522 55.58C95.7855 55.58 95.7322 55.56 95.6922 55.52C95.6522 55.48 95.6322 55.4267 95.6322 55.36C95.6322 55 95.6322 54.6333 95.6322 54.26C95.6322 53.8867 95.6322 53.52 95.6322 53.16C95.8589 53.16 96.1189 53.16 96.4122 53.16C96.7189 53.16 97.0322 53.16 97.3522 53.16C97.6855 53.16 98.0055 53.16 98.3122 53.16C98.6189 53.16 98.9055 53.16 99.1722 53.16C99.4389 53.16 99.6589 53.16 99.8322 53.16C99.8855 53.16 99.9255 53.1733 99.9522 53.2C99.9789 53.2133 99.9989 53.2333 100.012 53.26C100.039 53.2867 100.052 53.3267 100.052 53.38C100.052 54.0067 100.052 54.6933 100.052 55.44C100.052 56.1733 100.052 56.92 100.052 57.68C100.052 58.44 100.052 59.1867 100.052 59.92C100.052 60.6533 100.052 61.34 100.052 61.98C100.052 62.18 100.052 62.3933 100.052 62.62C100.052 62.8333 100.052 63.0467 100.052 63.26C100.052 63.4733 100.052 63.6933 100.052 63.92C99.6122 63.92 99.1989 63.92 98.8122 63.92C98.4389 63.92 98.0255 63.92 97.5722 63.92C97.5055 63.92 97.4522 63.9 97.4122 63.86C97.3722 63.82 97.3522 63.7667 97.3522 63.7ZM96.9522 48C97.2055 48 97.4655 48 97.7322 48C98.0122 48 98.2922 48 98.5722 48C98.8655 48 99.1455 48 99.4122 48C99.6922 48 99.9589 48 100.212 48C100.279 48 100.332 48.02 100.372 48.06C100.412 48.1 100.432 48.1533 100.432 48.22V50.8C100.179 50.8 99.9122 50.8 99.6322 50.8C99.3655 50.8 99.0855 50.8 98.7922 50.8C98.5122 50.8 98.2322 50.8 97.9522 50.8C97.6855 50.8 97.4255 50.8 97.1722 50.8C97.1055 50.8 97.0522 50.78 97.0122 50.74C96.9722 50.7 96.9522 50.6467 96.9522 50.58V48Z"
    fill="white" />
  <path
    d="M117.444 63.92C117.204 63.92 116.918 63.92 116.584 63.92C116.251 63.92 115.924 63.92 115.604 63.92C115.284 63.92 115.011 63.92 114.784 63.92C114.744 63.92 114.704 63.9133 114.664 63.9C114.638 63.8733 114.611 63.8467 114.584 63.82C114.571 63.7933 114.564 63.7533 114.564 63.7C114.564 63.2067 114.564 62.7133 114.564 62.22C114.564 61.7267 114.564 61.24 114.564 60.76C114.564 60.2667 114.564 59.78 114.564 59.3C114.564 58.82 114.564 58.3533 114.564 57.9C114.564 57.4467 114.564 57.0067 114.564 56.58C114.564 56.22 114.498 55.9667 114.364 55.82C114.231 55.6733 114.024 55.6 113.744 55.6C113.491 55.6 113.244 55.6733 113.004 55.82C112.764 55.9533 112.531 56.16 112.304 56.44C112.078 56.72 111.864 57.0733 111.664 57.5L111.264 54.7H112.284C112.498 54.3 112.724 53.9733 112.964 53.72C113.218 53.4533 113.511 53.2533 113.844 53.12C114.178 52.9867 114.551 52.92 114.964 52.92C115.284 52.92 115.591 52.98 115.884 53.1C116.191 53.2067 116.458 53.38 116.684 53.62C116.924 53.8467 117.111 54.1333 117.244 54.48C117.378 54.8133 117.444 55.2133 117.444 55.68C117.444 56.0667 117.444 56.5 117.444 56.98C117.444 57.46 117.444 57.9733 117.444 58.52C117.444 59.0533 117.444 59.6067 117.444 60.18C117.444 60.7533 117.444 61.3333 117.444 61.92C117.444 62.2533 117.444 62.5867 117.444 62.92C117.444 63.2533 117.444 63.5867 117.444 63.92ZM111.904 63.92C111.704 63.92 111.424 63.92 111.064 63.92C110.704 63.92 110.358 63.92 110.024 63.92C109.691 63.92 109.431 63.92 109.244 63.92C109.204 63.92 109.164 63.9133 109.124 63.9C109.098 63.8733 109.071 63.8467 109.044 63.82C109.031 63.7933 109.024 63.7533 109.024 63.7C109.024 63.2067 109.024 62.7133 109.024 62.22C109.024 61.7133 109.024 61.22 109.024 60.74C109.024 60.26 109.024 59.78 109.024 59.3C109.024 58.82 109.024 58.3533 109.024 57.9C109.024 57.4467 109.024 57 109.024 56.56C109.024 56.32 108.998 56.1267 108.944 55.98C108.891 55.8333 108.811 55.7333 108.704 55.68C108.598 55.6267 108.471 55.6 108.324 55.6C108.071 55.6 107.818 55.6733 107.564 55.82C107.311 55.9533 107.058 56.1667 106.804 56.46C106.564 56.74 106.324 57.1 106.084 57.54L105.584 54.7H106.564C106.804 54.3267 107.064 54.0067 107.344 53.74C107.624 53.4733 107.931 53.2733 108.264 53.14C108.598 52.9933 108.944 52.92 109.304 52.92C109.664 52.92 109.998 52.9733 110.304 53.08C110.624 53.1867 110.904 53.3467 111.144 53.56C111.384 53.7733 111.571 54.0467 111.704 54.38C111.838 54.7133 111.904 55.1067 111.904 55.56C111.904 55.8267 111.904 56.2 111.904 56.68C111.904 57.16 111.904 57.7467 111.904 58.44C111.904 59.1333 111.904 59.94 111.904 60.86C111.904 61.7667 111.904 62.7867 111.904 63.92ZM106.364 63.92C106.178 63.92 105.964 63.92 105.724 63.92C105.498 63.92 105.264 63.92 105.024 63.92C104.784 63.92 104.544 63.92 104.304 63.92C104.078 63.92 103.878 63.92 103.704 63.92C103.664 63.92 103.631 63.92 103.604 63.92C103.578 63.9067 103.551 63.8933 103.524 63.88C103.511 63.8533 103.498 63.8267 103.484 63.8C103.484 63.7733 103.484 63.74 103.484 63.7C103.484 62.74 103.484 61.7867 103.484 60.84C103.484 59.8933 103.484 58.9467 103.484 58C103.484 57.0533 103.484 56.1067 103.484 55.16C103.484 54.8 103.484 54.4533 103.484 54.12C103.484 53.7867 103.484 53.4667 103.484 53.16C103.631 53.16 103.798 53.16 103.984 53.16C104.171 53.16 104.364 53.16 104.564 53.16C104.778 53.16 104.978 53.16 105.164 53.16C105.351 53.16 105.518 53.16 105.664 53.16C105.664 53.16 105.698 53.28 105.764 53.52C105.844 53.7467 105.924 54.0133 106.004 54.32C106.098 54.6267 106.178 54.9 106.244 55.14C106.324 55.38 106.364 55.5 106.364 55.5C106.364 56.38 106.364 57.2867 106.364 58.22C106.364 59.1533 106.364 60.1 106.364 61.06C106.364 62.0067 106.364 62.96 106.364 63.92Z"
    fill="white" />
  <path
    d="M124.997 52.92C125.903 52.92 126.69 53.1067 127.357 53.48C128.037 53.8533 128.563 54.3733 128.937 55.04C129.31 55.7067 129.497 56.4867 129.497 57.38V59.04C129.497 59.08 129.49 59.12 129.477 59.16C129.463 59.1867 129.437 59.2067 129.397 59.22C129.37 59.2333 129.337 59.24 129.297 59.24H124.697C124.47 59.24 124.237 59.24 123.997 59.24C123.77 59.24 123.543 59.24 123.317 59.24H122.497L122.437 57.56H126.877C126.877 57.5067 126.877 57.46 126.877 57.42C126.877 57.38 126.877 57.3333 126.877 57.28C126.877 56.8933 126.837 56.5667 126.757 56.3C126.677 56.02 126.55 55.8 126.377 55.64C126.23 55.48 126.043 55.3667 125.817 55.3C125.59 55.2333 125.317 55.2 124.997 55.2C124.33 55.2 123.83 55.3667 123.497 55.7C123.177 56.02 123.017 56.5467 123.017 57.28V59.72C123.017 60.04 123.057 60.3267 123.137 60.58C123.23 60.82 123.357 61.0267 123.517 61.2C123.73 61.4133 124.01 61.5667 124.357 61.66C124.717 61.7533 125.13 61.8 125.597 61.8C126.077 61.8 126.503 61.78 126.877 61.74C127.25 61.6867 127.597 61.62 127.917 61.54C128.237 61.4467 128.55 61.3467 128.857 61.24H129.237C129.237 61.5733 129.237 61.9133 129.237 62.26C129.237 62.5933 129.237 62.9333 129.237 63.28C129.237 63.3067 129.23 63.3333 129.217 63.36C129.203 63.3867 129.183 63.4133 129.157 63.44C129.05 63.5467 128.81 63.6533 128.437 63.76C128.077 63.8667 127.637 63.96 127.117 64.04C126.61 64.12 126.09 64.16 125.557 64.16C124.69 64.16 123.923 64.06 123.257 63.86C122.603 63.6467 122.057 63.3467 121.617 62.96C121.19 62.5733 120.863 62.1067 120.637 61.56C120.423 61 120.317 60.3733 120.317 59.68V57.4C120.317 56.72 119.423 56.1067 119.637 55.56C119.863 55.0133 121.183 54.5467 121.597 54.16C122.01 53.76 122.503 53.4533 123.077 53.24C123.65 53.0267 124.29 52.92 124.997 52.92Z"
    fill="white" />
  <path
    d="M132.209 53.16H140.449C140.515 53.16 140.562 53.1733 140.589 53.2C140.615 53.2133 140.635 53.2333 140.649 53.26C140.675 53.2867 140.689 53.3267 140.689 53.38V55.98C140.342 56.34 140.022 56.68 139.729 57C139.449 57.32 139.175 57.6133 138.909 57.88C138.655 58.1467 138.415 58.4 138.189 58.64C137.975 58.88 137.769 59.1067 137.569 59.32C137.382 59.52 137.202 59.7067 137.029 59.88C136.749 60.1467 136.502 60.36 136.289 60.52C136.075 60.68 135.855 60.8333 135.629 60.98V61.36C135.935 61.36 136.249 61.36 136.569 61.36C136.889 61.36 137.202 61.36 137.509 61.36H140.469C140.535 61.36 140.589 61.38 140.629 61.42C140.669 61.46 140.689 61.5133 140.689 61.58C140.689 61.9667 140.689 62.36 140.689 62.76C140.689 63.1467 140.689 63.5333 140.689 63.92H132.449C132.395 63.92 132.349 63.9133 132.309 63.9C132.282 63.8733 132.255 63.8467 132.229 63.82C132.215 63.7933 132.209 63.7533 132.209 63.7V61.08C132.795 60.4667 133.315 59.92 133.769 59.44C134.222 58.96 134.635 58.5333 135.009 58.16C135.382 57.7733 135.742 57.42 136.089 57.1C136.315 56.9 136.529 56.7267 136.729 56.58C136.942 56.42 137.169 56.26 137.409 56.1V55.72C137.049 55.72 136.689 55.72 136.329 55.72C135.969 55.72 135.609 55.72 135.249 55.72H132.429C132.389 55.72 132.349 55.7133 132.309 55.7C132.282 55.6733 132.255 55.6467 132.229 55.62C132.215 55.58 132.209 55.54 132.209 55.5C132.209 55.1133 132.209 54.7267 132.209 54.34C132.209 53.94 132.209 53.5467 132.209 53.16Z"
    fill="white" />
  <path
    d="M147.554 52.92C148.274 52.92 148.928 53.0333 149.514 53.26C150.114 53.4867 150.628 53.8067 151.054 54.22C151.481 54.62 151.808 55.1 152.034 55.66C152.274 56.22 152.394 56.84 152.394 57.52V59.54C152.394 60.4467 152.188 61.2467 151.774 61.94C151.374 62.6333 150.808 63.18 150.074 63.58C149.354 63.9667 148.514 64.16 147.554 64.16C146.834 64.16 146.174 64.0467 145.574 63.82C144.988 63.5933 144.481 63.28 144.054 62.88C143.628 62.4667 143.294 61.98 143.054 61.42C142.828 60.86 142.714 60.24 142.714 59.56V57.54C142.714 56.6333 142.914 55.8333 143.314 55.14C143.728 54.4467 144.301 53.9067 145.034 53.52C145.768 53.12 146.608 52.92 147.554 52.92ZM147.574 55.38C147.121 55.38 146.734 55.4733 146.414 55.66C146.094 55.8333 145.848 56.0933 145.674 56.44C145.501 56.7733 145.414 57.18 145.414 57.66V59.42C145.414 59.7933 145.468 60.1267 145.574 60.42C145.681 60.7 145.828 60.9467 146.014 61.16C146.188 61.3333 146.401 61.4667 146.654 61.56C146.921 61.6533 147.214 61.7 147.534 61.7C147.988 61.7 148.374 61.6133 148.694 61.44C149.028 61.2533 149.274 60.9867 149.434 60.64C149.608 60.2933 149.694 59.8867 149.694 59.42V57.66C149.694 57.2467 149.648 56.9 149.554 56.62C149.461 56.3267 149.321 56.0867 149.134 55.9C148.961 55.7133 148.741 55.58 148.474 55.5C148.221 55.42 147.921 55.38 147.574 55.38Z"
    fill="white" />
  <path
    d="M164.206 63.92C163.766 63.92 163.353 63.92 162.966 63.92C162.593 63.92 162.18 63.92 161.726 63.92C161.686 63.92 161.646 63.9133 161.606 63.9C161.58 63.8733 161.553 63.8467 161.526 63.82C161.513 63.7933 161.506 63.7533 161.506 63.7C161.506 62.9133 161.506 62.1267 161.506 61.34C161.506 60.54 161.506 59.7467 161.506 58.96C161.506 58.1733 161.506 57.3867 161.506 56.6C161.506 56.24 161.426 55.9733 161.266 55.8C161.106 55.6267 160.853 55.54 160.506 55.54C160.28 55.54 160.026 55.58 159.746 55.66C159.48 55.7267 159.206 55.8333 158.926 55.98C158.66 56.1133 158.4 56.2867 158.146 56.5C157.893 56.7133 157.66 56.9667 157.446 57.26V54.9H158.146C158.413 54.5 158.706 54.1533 159.026 53.86C159.36 53.5667 159.72 53.34 160.106 53.18C160.506 53.0067 160.933 52.92 161.386 52.92C161.813 52.92 162.2 52.9933 162.546 53.14C162.906 53.2733 163.206 53.48 163.446 53.76C163.7 54.0267 163.886 54.3533 164.006 54.74C164.14 55.1267 164.206 55.56 164.206 56.04C164.206 56.68 164.206 57.3267 164.206 57.98C164.206 58.6333 164.206 59.2867 164.206 59.94C164.206 60.5933 164.206 61.2533 164.206 61.92C164.206 62.2533 164.206 62.5867 164.206 62.92C164.206 63.2533 164.206 63.5867 164.206 63.92ZM157.766 63.92C157.473 63.92 157.193 63.92 156.926 63.92C156.673 63.92 156.406 63.92 156.126 63.92C155.86 63.92 155.58 63.92 155.286 63.92C155.246 63.92 155.213 63.92 155.186 63.92C155.16 63.9067 155.133 63.8933 155.106 63.88C155.093 63.8533 155.08 63.8267 155.066 63.8C155.066 63.7733 155.066 63.74 155.066 63.7C155.066 62.98 155.066 62.2667 155.066 61.56C155.066 60.84 155.066 60.1267 155.066 59.42C155.066 58.7 155.066 57.9867 155.066 57.28C155.066 56.56 155.066 55.84 155.066 55.12C155.066 54.7467 155.066 54.3933 155.066 54.06C155.066 53.7267 155.066 53.4267 155.066 53.16C155.4 53.16 155.7 53.16 155.966 53.16C156.246 53.16 156.513 53.16 156.766 53.16C157.033 53.16 157.293 53.16 157.546 53.16C157.6 53.16 157.64 53.1733 157.666 53.2C157.693 53.2133 157.713 53.2333 157.726 53.26C157.753 53.2867 157.766 53.3267 157.766 53.38C157.766 54.54 157.766 55.7067 157.766 56.88C157.766 58.0533 157.766 59.2267 157.766 60.4C157.766 61.5733 157.766 62.7467 157.766 63.92Z"
    fill="white" />
  <path
    d="M171.579 52.92C172.485 52.92 173.272 53.1067 173.939 53.48C174.619 53.8533 175.145 54.3733 175.519 55.04C175.892 55.7067 176.079 56.4867 176.079 57.38V59.04C176.079 59.08 176.072 59.12 176.059 59.16C176.045 59.1867 176.019 59.2067 175.979 59.22C175.952 59.2333 175.919 59.24 175.879 59.24H171.279C171.052 59.24 170.819 59.24 170.579 59.24C170.352 59.24 170.125 59.24 169.899 59.24H169.079L169.019 57.56H173.459C173.459 57.5067 173.459 57.46 173.459 57.42C173.459 57.38 173.459 57.3333 173.459 57.28C173.459 56.8933 173.419 56.5667 173.339 56.3C173.259 56.02 173.132 55.8 172.959 55.64C172.812 55.48 172.625 55.3667 172.399 55.3C172.172 55.2333 171.899 55.2 171.579 55.2C170.912 55.2 170.412 55.3667 170.079 55.7C169.759 56.02 169.599 56.5467 169.599 57.28V59.72C169.599 60.04 169.639 60.3267 169.719 60.58C169.812 60.82 169.939 61.0267 170.099 61.2C170.312 61.4133 170.592 61.5667 170.939 61.66C171.299 61.7533 171.712 61.8 172.179 61.8C172.659 61.8 173.085 61.78 173.459 61.74C173.832 61.6867 174.179 61.62 174.499 61.54C174.819 61.4467 175.132 61.3467 175.439 61.24H175.819C175.819 61.5733 175.819 61.9133 175.819 62.26C175.819 62.5933 175.819 62.9333 175.819 63.28C175.819 63.3067 175.812 63.3333 175.799 63.36C175.785 63.3867 175.765 63.4133 175.739 63.44C175.632 63.5467 175.392 63.6533 175.019 63.76C174.659 63.8667 174.219 63.96 173.699 64.04C173.192 64.12 172.672 64.16 172.139 64.16C171.272 64.16 170.505 64.06 169.839 63.86C169.185 63.6467 168.639 63.3467 168.199 62.96C167.772 62.5733 167.445 62.1067 167.219 61.56C167.005 61 166.899 60.3733 166.899 59.68V57.4C166.899 56.72 167.005 56.1067 167.219 55.56C167.445 55.0133 167.765 54.5467 168.179 54.16C168.592 53.76 169.085 53.4533 169.659 53.24C170.232 53.0267 170.872 52.92 171.579 52.92Z"
    fill="white" />
  <path
    d="M190.347 64.32C189.387 64.32 188.547 64.1933 187.827 63.94C187.107 63.7 186.507 63.3467 186.027 62.88C185.547 62.4133 185.187 61.84 184.947 61.16C184.72 60.48 184.607 59.7067 184.607 58.84V54.8C184.607 54.0133 184.727 53.3 184.967 52.66C185.207 52.0067 185.56 51.4467 186.027 50.98C186.507 50.5133 187.087 50.1533 187.767 49.9C188.46 49.6467 189.247 49.52 190.127 49.52C190.807 49.52 191.414 49.5867 191.947 49.72C192.494 49.84 192.954 50 193.327 50.2C193.714 50.3867 194.014 50.5867 194.227 50.8C194.254 50.8267 194.274 50.86 194.287 50.9C194.3 50.94 194.307 50.98 194.307 51.02C194.32 51.06 194.327 51.1 194.327 51.14C194.327 51.6333 194.327 52.2 194.327 52.84C194.327 53.4667 194.327 54.0667 194.327 54.64C193.94 54.64 193.554 54.64 193.167 54.64C192.78 54.64 192.394 54.64 192.007 54.64C191.94 54.64 191.887 54.62 191.847 54.58C191.807 54.54 191.787 54.4867 191.787 54.42C191.787 54.18 191.787 53.94 191.787 53.7C191.787 53.46 191.787 53.1933 191.787 52.9C191.787 52.5933 191.787 52.24 191.787 51.84L192.347 52.68C192.014 52.4667 191.667 52.32 191.307 52.24C190.947 52.1467 190.54 52.1 190.087 52.1C189.554 52.1 189.087 52.2 188.687 52.4C188.3 52.5867 188 52.8867 187.787 53.3C187.587 53.7133 187.487 54.24 187.487 54.88V58.62C187.487 59.22 187.54 59.7267 187.647 60.14C187.767 60.54 187.96 60.8733 188.227 61.14C188.467 61.38 188.767 61.5533 189.127 61.66C189.5 61.7533 189.914 61.8 190.367 61.8C191.1 61.8 191.747 61.7133 192.307 61.54C192.867 61.3667 193.454 61.0867 194.067 60.7H194.447C194.447 60.8867 194.447 61.0733 194.447 61.26C194.447 61.4333 194.447 61.6133 194.447 61.8C194.447 61.9733 194.447 62.1533 194.447 62.34C194.447 62.5133 194.447 62.7 194.447 62.9C194.447 62.9667 194.434 63.0267 194.407 63.08C194.394 63.1333 194.367 63.1733 194.327 63.2C194.14 63.4 193.854 63.5867 193.467 63.76C193.08 63.92 192.62 64.0533 192.087 64.16C191.554 64.2667 190.974 64.32 190.347 64.32Z"
    fill="white" />
  <path
    d="M201.519 52.92C202.239 52.92 202.892 53.0333 203.479 53.26C204.079 53.4867 204.592 53.8067 205.019 54.22C205.446 54.62 205.772 55.1 205.999 55.66C206.239 56.22 206.359 56.84 206.359 57.52V59.54C206.359 60.4467 206.152 61.2467 205.739 61.94C205.339 62.6333 204.772 63.18 204.039 63.58C203.319 63.9667 202.479 64.16 201.519 64.16C200.799 64.16 200.139 64.0467 199.539 63.82C198.952 63.5933 198.446 63.28 198.019 62.88C197.592 62.4667 197.259 61.98 197.019 61.42C196.792 60.86 196.679 60.24 196.679 59.56V57.54C196.679 56.6333 196.879 55.8333 197.279 55.14C197.692 54.4467 198.266 53.9067 198.999 53.52C199.732 53.12 200.572 52.92 201.519 52.92ZM201.539 55.38C201.086 55.38 200.699 55.4733 200.379 55.66C200.059 55.8333 199.812 56.0933 199.639 56.44C199.466 56.7733 199.379 57.18 199.379 57.66V59.42C199.379 59.7933 199.432 60.1267 199.539 60.42C199.646 60.7 199.792 60.9467 199.979 61.16C200.152 61.3333 200.366 61.4667 200.619 61.56C200.886 61.6533 201.179 61.7 201.499 61.7C201.952 61.7 202.339 61.6133 202.659 61.44C202.992 61.2533 203.239 60.9867 203.399 60.64C203.572 60.2933 203.659 59.8867 203.659 59.42V57.66C203.659 57.2467 203.612 56.9 203.519 56.62C203.426 56.3267 203.286 56.0867 203.099 55.9C202.926 55.7133 202.706 55.58 202.439 55.5C202.186 55.42 201.886 55.38 201.539 55.38Z"
    fill="white" />
  <path
    d="M218.171 63.92C217.731 63.92 217.318 63.92 216.931 63.92C216.558 63.92 216.145 63.92 215.691 63.92C215.651 63.92 215.611 63.9133 215.571 63.9C215.545 63.8733 215.518 63.8467 215.491 63.82C215.478 63.7933 215.471 63.7533 215.471 63.7C215.471 62.9133 215.471 62.1267 215.471 61.34C215.471 60.54 215.471 59.7467 215.471 58.96C215.471 58.1733 215.471 57.3867 215.471 56.6C215.471 56.24 215.391 55.9733 215.231 55.8C215.071 55.6267 214.818 55.54 214.471 55.54C214.245 55.54 213.991 55.58 213.711 55.66C213.445 55.7267 213.171 55.8333 212.891 55.98C212.625 56.1133 212.365 56.2867 212.111 56.5C211.858 56.7133 211.625 56.9667 211.411 57.26V54.9H212.111C212.378 54.5 212.671 54.1533 212.991 53.86C213.325 53.5667 213.685 53.34 214.071 53.18C214.471 53.0067 214.898 52.92 215.351 52.92C215.778 52.92 216.165 52.9933 216.511 53.14C216.871 53.2733 217.171 53.48 217.411 53.76C217.665 54.0267 217.851 54.3533 217.971 54.74C218.105 55.1267 218.171 55.56 218.171 56.04C218.171 56.68 218.171 57.3267 218.171 57.98C218.171 58.6333 218.171 59.2867 218.171 59.94C218.171 60.5933 218.171 61.2533 218.171 61.92C218.171 62.2533 218.171 62.5867 218.171 62.92C218.171 63.2533 218.171 63.5867 218.171 63.92ZM211.731 63.92C211.438 63.92 211.158 63.92 210.891 63.92C210.638 63.92 210.371 63.92 210.091 63.92C209.825 63.92 209.545 63.92 209.251 63.92C209.211 63.92 209.178 63.92 209.151 63.92C209.125 63.9067 209.098 63.8933 209.071 63.88C209.058 63.8533 209.045 63.8267 209.031 63.8C209.031 63.7733 209.031 63.74 209.031 63.7C209.031 62.98 209.031 62.2667 209.031 61.56C209.031 60.84 209.031 60.1267 209.031 59.42C209.031 58.7 209.031 57.9867 209.031 57.28C209.031 56.56 209.031 55.84 209.031 55.12C209.031 54.7467 209.031 54.3933 209.031 54.06C209.031 53.7267 209.031 53.4267 209.031 53.16C209.365 53.16 209.665 53.16 209.931 53.16C210.211 53.16 210.478 53.16 210.731 53.16C210.998 53.16 211.258 53.16 211.511 53.16C211.565 53.16 211.605 53.1733 211.631 53.2C211.658 53.2133 211.678 53.2333 211.691 53.26C211.718 53.2867 211.731 53.3267 211.731 53.38C211.731 54.54 211.731 55.7067 211.731 56.88C211.731 58.0533 211.731 59.2267 211.731 60.4C211.731 61.5733 211.731 62.7467 211.731 63.92Z"
    fill="white" />
  <path
    d="M222.533 53.16C222.599 53.16 222.646 53.1733 222.673 53.2C222.713 53.2267 222.746 53.26 222.773 53.3C222.813 53.34 222.839 53.3933 222.853 53.46C223.079 54.2867 223.306 55.1267 223.533 55.98C223.773 56.82 224.006 57.7267 224.233 58.7C224.473 59.6733 224.713 60.7667 224.953 61.98H225.333C225.479 61.26 225.626 60.58 225.773 59.94C225.919 59.2867 226.066 58.6667 226.213 58.08C226.359 57.48 226.499 56.9067 226.633 56.36C226.779 55.8133 226.919 55.2733 227.053 54.74C227.199 54.2067 227.339 53.68 227.473 53.16C227.886 53.16 228.299 53.16 228.713 53.16C229.139 53.16 229.566 53.16 229.993 53.16C230.059 53.16 230.113 53.18 230.153 53.22C230.193 53.2467 230.219 53.2867 230.233 53.34C230.259 53.3933 230.259 53.4533 230.233 53.52C229.966 54.3867 229.699 55.2533 229.433 56.12C229.166 56.9867 228.899 57.8533 228.633 58.72C228.379 59.5867 228.119 60.4533 227.853 61.32C227.599 62.1867 227.333 63.0533 227.053 63.92C226.466 63.92 225.879 63.92 225.293 63.92C224.719 63.92 224.186 63.92 223.693 63.92C223.559 63.92 223.446 63.9 223.353 63.86C223.259 63.82 223.179 63.7467 223.113 63.64C223.059 63.5333 222.993 63.3667 222.913 63.14C222.739 62.54 222.553 61.9267 222.353 61.3C222.166 60.66 221.973 60.0067 221.773 59.34C221.573 58.6733 221.366 58 221.153 57.32C220.953 56.64 220.746 55.9533 220.533 55.26C220.319 54.5533 220.106 53.8533 219.893 53.16C220.346 53.16 220.786 53.16 221.213 53.16C221.653 53.16 222.093 53.16 222.533 53.16Z"
    fill="white" />
  <path
    d="M236.754 52.92C237.661 52.92 238.448 53.1067 239.114 53.48C239.794 53.8533 240.321 54.3733 240.694 55.04C241.068 55.7067 241.254 56.4867 241.254 57.38V59.04C241.254 59.08 241.248 59.12 241.234 59.16C241.221 59.1867 241.194 59.2067 241.154 59.22C241.128 59.2333 241.094 59.24 241.054 59.24H236.454C236.228 59.24 235.994 59.24 235.754 59.24C235.528 59.24 235.301 59.24 235.074 59.24H234.254L234.194 57.56H238.634C238.634 57.5067 238.634 57.46 238.634 57.42C238.634 57.38 238.634 57.3333 238.634 57.28C238.634 56.8933 238.594 56.5667 238.514 56.3C238.434 56.02 238.308 55.8 238.134 55.64C237.988 55.48 237.801 55.3667 237.574 55.3C237.348 55.2333 237.074 55.2 236.754 55.2C236.088 55.2 235.588 55.3667 235.254 55.7C234.934 56.02 234.774 56.5467 234.774 57.28V59.72C234.774 60.04 234.814 60.3267 234.894 60.58C234.988 60.82 235.114 61.0267 235.274 61.2C235.488 61.4133 235.768 61.5667 236.114 61.66C236.474 61.7533 236.888 61.8 237.354 61.8C237.834 61.8 238.261 61.78 238.634 61.74C239.008 61.6867 239.354 61.62 239.674 61.54C239.994 61.4467 240.308 61.3467 240.614 61.24H240.994C240.994 61.5733 240.994 61.9133 240.994 62.26C240.994 62.5933 240.994 62.9333 240.994 63.28C240.994 63.3067 240.988 63.3333 240.974 63.36C240.961 63.3867 240.941 63.4133 240.914 63.44C240.808 63.5467 240.568 63.6533 240.194 63.76C239.834 63.8667 239.394 63.96 238.874 64.04C238.368 64.12 237.848 64.16 237.314 64.16C236.448 64.16 235.681 64.06 235.014 63.86C234.361 63.6467 233.814 63.3467 233.374 62.96C232.948 62.5733 232.621 62.1067 232.394 61.56C232.181 61 232.074 60.3733 232.074 59.68V57.4C232.074 56.72 232.181 56.1067 232.394 55.56C232.621 55.0133 232.941 54.5467 233.354 54.16C233.768 53.76 234.261 53.4533 234.834 53.24C235.408 53.0267 236.048 52.92 236.754 52.92Z"
    fill="white" />
  <path
    d="M246.727 55.26H247.487C247.66 54.7267 247.873 54.2933 248.127 53.96C248.393 53.6267 248.707 53.38 249.067 53.22C249.44 53.0467 249.867 52.96 250.347 52.96C250.587 52.96 250.78 52.98 250.927 53.02C251.073 53.06 251.18 53.1067 251.247 53.16C251.3 53.2 251.333 53.24 251.347 53.28C251.36 53.3067 251.367 53.3467 251.367 53.4C251.367 53.6133 251.367 53.8267 251.367 54.04C251.367 54.2533 251.367 54.46 251.367 54.66C251.367 54.86 251.367 55.0667 251.367 55.28C251.367 55.48 251.367 55.6867 251.367 55.9H250.987C250.787 55.8333 250.593 55.7933 250.407 55.78C250.233 55.7533 250.04 55.74 249.827 55.74C249.373 55.74 248.96 55.8267 248.587 56C248.213 56.1733 247.873 56.44 247.567 56.8C247.26 57.16 246.98 57.6267 246.727 58.2V55.26ZM247.107 63.92C246.813 63.92 246.513 63.92 246.207 63.92C245.913 63.92 245.62 63.92 245.327 63.92C245.033 63.92 244.74 63.92 244.447 63.92C244.407 63.92 244.373 63.92 244.347 63.92C244.32 63.9067 244.293 63.8933 244.267 63.88C244.253 63.8533 244.24 63.8267 244.227 63.8C244.227 63.7733 244.227 63.74 244.227 63.7C244.227 63.2067 244.227 62.6867 244.227 62.14C244.227 61.58 244.227 61.0067 244.227 60.42C244.227 59.8333 244.227 59.2467 244.227 58.66C244.227 58.06 244.227 57.4667 244.227 56.88C244.227 56.28 244.227 55.6933 244.227 55.12C244.227 54.7467 244.227 54.3933 244.227 54.06C244.227 53.7267 244.227 53.4267 244.227 53.16C244.56 53.16 244.873 53.16 245.167 53.16C245.473 53.16 245.767 53.16 246.047 53.16C246.34 53.16 246.62 53.16 246.887 53.16C246.94 53.16 246.98 53.1733 247.007 53.2C247.033 53.2133 247.053 53.2333 247.067 53.26C247.093 53.2867 247.107 53.3267 247.107 53.38C247.107 53.9933 247.107 54.64 247.107 55.32C247.107 56 247.107 56.6933 247.107 57.4C247.107 58.1067 247.107 58.8333 247.107 59.58C247.107 60.3133 247.107 61.0467 247.107 61.78C247.107 62.5 247.107 63.2133 247.107 63.92Z"
    fill="white" />
  <path
    d="M252.921 53.16H260.641C260.721 53.16 260.781 53.18 260.821 53.22C260.861 53.26 260.881 53.3133 260.881 53.38C260.881 53.66 260.881 53.92 260.881 54.16C260.881 54.4 260.881 54.6467 260.881 54.9C260.881 55.1533 260.881 55.4133 260.881 55.68H253.161C253.134 55.68 253.108 55.6733 253.081 55.66C253.054 55.6467 253.028 55.6333 253.001 55.62C252.974 55.5933 252.954 55.5667 252.941 55.54C252.928 55.5133 252.921 55.4867 252.921 55.46C252.921 55.1933 252.921 54.9333 252.921 54.68C252.921 54.4267 252.921 54.18 252.921 53.94C252.921 53.7 252.921 53.44 252.921 53.16ZM260.881 61.34C260.881 61.74 260.881 62.14 260.881 62.54C260.881 62.9267 260.881 63.3133 260.881 63.7C260.881 63.7533 260.861 63.8067 260.821 63.86C260.781 63.9 260.728 63.92 260.661 63.92C260.528 63.92 260.388 63.92 260.241 63.92C260.108 63.92 259.968 63.92 259.821 63.92C259.688 63.92 259.554 63.92 259.421 63.92C259.288 63.92 259.148 63.92 259.001 63.92C258.308 63.92 257.688 63.84 257.141 63.68C256.594 63.5067 256.128 63.2467 255.741 62.9C255.354 62.5533 255.061 62.1067 254.861 61.56C254.661 61.0133 254.561 60.3667 254.561 59.62C254.561 58.9667 254.561 58.32 254.561 57.68C254.561 57.04 254.561 56.4 254.561 55.76C254.561 55.12 254.561 54.48 254.561 53.84C254.561 53.2 254.561 52.56 254.561 51.92C254.561 51.5733 254.561 51.24 254.561 50.92C254.561 50.5867 254.561 50.2533 254.561 49.92C254.974 49.92 255.388 49.92 255.801 49.92C256.228 49.92 256.641 49.92 257.041 49.92C257.081 49.92 257.114 49.9333 257.141 49.96C257.181 49.9733 257.208 50 257.221 50.04C257.248 50.0667 257.261 50.1 257.261 50.14C257.261 50.9133 257.261 51.6867 257.261 52.46C257.261 53.22 257.261 53.9867 257.261 54.76C257.261 55.5333 257.261 56.3067 257.261 57.08C257.261 57.84 257.261 58.6067 257.261 59.38C257.261 59.78 257.301 60.1067 257.381 60.36C257.461 60.6133 257.581 60.82 257.741 60.98C257.888 61.1133 258.068 61.2067 258.281 61.26C258.508 61.3133 258.781 61.34 259.101 61.34C259.274 61.34 259.441 61.34 259.601 61.34C259.774 61.34 259.948 61.34 260.121 61.34C260.294 61.34 260.468 61.34 260.641 61.34H260.881Z"
    fill="white" />
  <path
    d="M268.141 52.92C269.048 52.92 269.834 53.1067 270.501 53.48C271.181 53.8533 271.708 54.3733 272.081 55.04C272.454 55.7067 272.641 56.4867 272.641 57.38V59.04C272.641 59.08 272.634 59.12 272.621 59.16C272.608 59.1867 272.581 59.2067 272.541 59.22C272.514 59.2333 272.481 59.24 272.441 59.24H267.841C267.614 59.24 267.381 59.24 267.141 59.24C266.914 59.24 266.688 59.24 266.461 59.24H265.641L265.581 57.56H270.021C270.021 57.5067 270.021 57.46 270.021 57.42C270.021 57.38 270.021 57.3333 270.021 57.28C270.021 56.8933 269.981 56.5667 269.901 56.3C269.821 56.02 269.694 55.8 269.521 55.64C269.374 55.48 269.188 55.3667 268.961 55.3C268.734 55.2333 268.461 55.2 268.141 55.2C267.474 55.2 266.974 55.3667 266.641 55.7C266.321 56.02 266.161 56.5467 266.161 57.28V59.72C266.161 60.04 266.201 60.3267 266.281 60.58C266.374 60.82 266.501 61.0267 266.661 61.2C266.874 61.4133 267.154 61.5667 267.501 61.66C267.861 61.7533 268.274 61.8 268.741 61.8C269.221 61.8 269.648 61.78 270.021 61.74C270.394 61.6867 270.741 61.62 271.061 61.54C271.381 61.4467 271.694 61.3467 272.001 61.24H272.381C272.381 61.5733 272.381 61.9133 272.381 62.26C272.381 62.5933 272.381 62.9333 272.381 63.28C272.381 63.3067 272.374 63.3333 272.361 63.36C272.348 63.3867 272.328 63.4133 272.301 63.44C272.194 63.5467 271.954 63.6533 271.581 63.76C271.221 63.8667 270.781 63.96 270.261 64.04C269.754 64.12 269.234 64.16 268.701 64.16C267.834 64.16 267.068 64.06 266.401 63.86C265.748 63.6467 265.201 63.3467 264.761 62.96C264.334 62.5733 264.008 62.1067 263.781 61.56C263.568 61 263.461 60.3733 263.461 59.68V57.4C263.461 56.72 263.568 56.1067 263.781 55.56C264.008 55.0133 264.328 54.5467 264.741 54.16C265.154 53.76 265.648 53.4533 266.221 53.24C266.794 53.0267 267.434 52.92 268.141 52.92Z"
    fill="white" />
  <path
    d="M278.113 55.26H278.873C279.047 54.7267 279.26 54.2933 279.513 53.96C279.78 53.6267 280.093 53.38 280.453 53.22C280.827 53.0467 281.253 52.96 281.733 52.96C281.973 52.96 282.167 52.98 282.313 53.02C282.46 53.06 282.567 53.1067 282.633 53.16C282.687 53.2 282.72 53.24 282.733 53.28C282.747 53.3067 282.753 53.3467 282.753 53.4C282.753 53.6133 282.753 53.8267 282.753 54.04C282.753 54.2533 282.753 54.46 282.753 54.66C282.753 54.86 282.753 55.0667 282.753 55.28C282.753 55.48 282.753 55.6867 282.753 55.9H282.373C282.173 55.8333 281.98 55.7933 281.793 55.78C281.62 55.7533 281.427 55.74 281.213 55.74C280.76 55.74 280.347 55.8267 279.973 56C279.6 56.1733 279.26 56.44 278.953 56.8C278.647 57.16 278.367 57.6267 278.113 58.2V55.26ZM278.493 63.92C278.2 63.92 277.9 63.92 277.593 63.92C277.3 63.92 277.007 63.92 276.713 63.92C276.42 63.92 276.127 63.92 275.833 63.92C275.793 63.92 275.76 63.92 275.733 63.92C275.707 63.9067 275.68 63.8933 275.653 63.88C275.64 63.8533 275.627 63.8267 275.613 63.8C275.613 63.7733 275.613 63.74 275.613 63.7C275.613 63.2067 275.613 62.6867 275.613 62.14C275.613 61.58 275.613 61.0067 275.613 60.42C275.613 59.8333 275.613 59.2467 275.613 58.66C275.613 58.06 275.613 57.4667 275.613 56.88C275.613 56.28 275.613 55.6933 275.613 55.12C275.613 54.7467 275.613 54.3933 275.613 54.06C275.613 53.7267 275.613 53.4267 275.613 53.16C275.947 53.16 276.26 53.16 276.553 53.16C276.86 53.16 277.153 53.16 277.433 53.16C277.727 53.16 278.007 53.16 278.273 53.16C278.327 53.16 278.367 53.1733 278.393 53.2C278.42 53.2133 278.44 53.2333 278.453 53.26C278.48 53.2867 278.493 53.3267 278.493 53.38C278.493 53.9933 278.493 54.64 278.493 55.32C278.493 56 278.493 56.6933 278.493 57.4C278.493 58.1067 278.493 58.8333 278.493 59.58C278.493 60.3133 278.493 61.0467 278.493 61.78C278.493 62.5 278.493 63.2133 278.493 63.92Z"
    fill="white" />
</svg>